<?xml version="1.0" encoding="utf-8"?>
<!-- Generator: Adobe Illustrator 23.0.6, SVG Export Plug-In . SVG Version: 6.00 Build 0)  -->
<svg version="1.1" id="Layer_1" xmlns="http://www.w3.org/2000/svg" xmlns:xlink="http://www.w3.org/1999/xlink" x="0px" y="0px"
	 viewBox="0 0 216 197.61" style="enable-background:new 0 0 216 197.61;" xml:space="preserve">
<style type="text/css">
	.st0{font-family:'DINCondensed-Bold';}
	.st1{font-size:13.2737px;}
</style>
<path d="M101.94,103.49H14.59V48.61l43.67-33.47l43.67,33.47V103.49z M17.68,100.41h81.18V50.13L58.27,19.02L17.68,50.13V100.41z"/>
<path d="M101.94,170.25h-50.9v-69.54h50.9V170.25z M54.13,167.17h44.73V103.8H54.13V167.17z"/>
<path d="M119,187.26l-17.31-17.3L119,152.65l17.31,17.31L119,187.26z M106.06,169.96L119,182.9l12.94-12.94L119,157.01
	L106.06,169.96z"/>
<text transform="matrix(1 0 0 1.0526 26.8093 41.5228)" class="st0 st1"> </text>
<text transform="matrix(1 0 0 1.0526 180.3289 175.0023)" class="st0 st1"> </text>
<g>
	<g>
		<path d="M110.77,50.13v-3.34h2.11v3.34h1.3v1.74h-1.3v6.1c0,0.26,0.02,0.47,0.07,0.61c0.05,0.14,0.13,0.25,0.24,0.32
			c0.11,0.07,0.24,0.12,0.4,0.13c0.16,0.02,0.35,0.02,0.59,0.02v2.09h-0.87c-0.48,0-0.88-0.08-1.21-0.24
			c-0.32-0.16-0.58-0.36-0.77-0.61c-0.19-0.24-0.33-0.52-0.42-0.84c-0.09-0.31-0.14-0.61-0.14-0.9v-6.69h-1.05v-1.74H110.77z"/>
		<path d="M114.98,61.14V45.67h2.11v5.52h0.04c0.22-0.35,0.49-0.63,0.79-0.86c0.31-0.23,0.71-0.34,1.19-0.34
			c0.26,0,0.52,0.05,0.78,0.14c0.26,0.09,0.5,0.25,0.7,0.47c0.21,0.22,0.37,0.5,0.5,0.84c0.12,0.34,0.19,0.76,0.19,1.25v8.45h-2.11
			v-7.63c0-0.41-0.09-0.72-0.27-0.96c-0.18-0.23-0.43-0.35-0.76-0.35c-0.4,0-0.68,0.13-0.83,0.39c-0.15,0.26-0.23,0.64-0.23,1.13
			v7.41H114.98z"/>
		<path d="M129.1,56.47h-4.17v1.5c0,0.35,0.09,0.62,0.28,0.8c0.18,0.19,0.44,0.28,0.75,0.28c0.4,0,0.66-0.12,0.79-0.37
			c0.13-0.24,0.21-0.49,0.24-0.74h2.1c0,0.97-0.28,1.75-0.85,2.34c-0.27,0.31-0.61,0.54-0.99,0.72c-0.39,0.18-0.82,0.26-1.3,0.26
			c-0.66,0-1.22-0.14-1.68-0.44c-0.46-0.29-0.81-0.67-1.06-1.15c-0.15-0.29-0.26-0.62-0.31-1c-0.05-0.38-0.08-0.79-0.08-1.24v-3.63
			c0-0.45,0.03-0.86,0.08-1.24s0.16-0.71,0.31-1c0.25-0.48,0.6-0.86,1.06-1.15c0.46-0.29,1.02-0.43,1.68-0.43
			c0.48,0,0.92,0.09,1.31,0.26c0.39,0.17,0.72,0.41,1,0.72c0.55,0.65,0.82,1.47,0.82,2.46V56.47z M124.93,54.73H127v-1.26
			c0-0.42-0.09-0.73-0.28-0.95c-0.18-0.21-0.44-0.32-0.75-0.32c-0.32,0-0.57,0.11-0.75,0.32c-0.19,0.21-0.28,0.53-0.28,0.95V54.73z"
			/>
	</g>
	<g>
		<path d="M132.13,47.39h3.39l6.8,16.8l6.67-16.8h3.39v25.78h-3.59V57.1h-0.08l-4.96,12.38h-3l-4.97-12.38h-0.06v16.08h-3.59V47.39z
			"/>
		<path d="M155.76,73.17l5.47-25.78h2.92l5.47,25.78h-3.51l-1.03-5.54h-4.78l-1.03,5.54H155.76z M164.43,64.16l-1.72-9.34h-0.07
			l-1.72,9.34H164.43z"/>
		<path d="M182.49,65.82v1.59c0,0.8-0.14,1.55-0.43,2.26c-0.29,0.71-0.68,1.35-1.19,1.9c-0.5,0.56-1.1,1-1.77,1.32
			c-0.68,0.32-1.4,0.49-2.19,0.49c-0.67,0-1.34-0.1-2.03-0.29c-0.69-0.19-1.31-0.53-1.86-1.01c-0.55-0.48-1-1.1-1.36-1.86
			c-0.35-0.76-0.53-1.73-0.53-2.92V53.11c0-0.85,0.14-1.63,0.41-2.35c0.27-0.73,0.67-1.35,1.17-1.88c0.5-0.53,1.11-0.95,1.8-1.25
			c0.7-0.3,1.48-0.45,2.32-0.45c1.65,0,2.99,0.57,4.02,1.7c0.5,0.56,0.9,1.21,1.19,1.97c0.29,0.76,0.43,1.59,0.43,2.48v1.45h-3.51
			v-1.23c0-0.72-0.19-1.35-0.59-1.88c-0.39-0.53-0.92-0.8-1.58-0.8c-0.87,0-1.45,0.29-1.74,0.85c-0.29,0.57-0.43,1.29-0.43,2.15
			v13.18c0,0.75,0.15,1.38,0.46,1.88c0.31,0.51,0.87,0.76,1.67,0.76c0.23,0,0.48-0.04,0.74-0.13c0.26-0.08,0.51-0.22,0.74-0.41
			c0.21-0.19,0.38-0.46,0.52-0.8c0.14-0.34,0.21-0.76,0.21-1.27v-1.27H182.49z"/>
		<path d="M185.68,47.39h10.2c1.98,0,3.59,0.57,4.84,1.7c1.5,1.29,2.29,3.12,2.35,5.5c-0.05,3.5-1.57,5.88-4.58,7.14l5.49,11.44
			h-4.27l-4.91-11.02h-5.53v11.02h-3.59V47.39z M189.27,58.69h6.38c1.35-0.02,2.36-0.45,3.03-1.28c0.66-0.77,0.99-1.71,0.99-2.84
			c-0.02-1.35-0.42-2.32-1.19-2.93c-0.61-0.53-1.49-0.8-2.64-0.8h-6.58V58.69z"/>
	</g>
	<g>
		<path d="M109.81,103.23V77.45h5.26c0.96,0,1.81,0.13,2.55,0.4c0.73,0.27,1.4,0.74,1.99,1.41c0.6,0.68,1.01,1.47,1.24,2.37
			c0.23,0.91,0.34,2.13,0.34,3.67c0,1.16-0.06,2.14-0.19,2.94c-0.13,0.8-0.4,1.54-0.81,2.24c-0.48,0.85-1.12,1.5-1.93,1.97
			c-0.8,0.47-1.86,0.71-3.16,0.71h-1.79v10.07H109.81z M113.31,80.92v8.76H115c0.71,0,1.26-0.11,1.65-0.32
			c0.39-0.22,0.68-0.52,0.86-0.91c0.18-0.36,0.29-0.81,0.32-1.34c0.04-0.53,0.05-1.13,0.05-1.77c0-0.6-0.01-1.18-0.03-1.72
			c-0.03-0.54-0.13-1.02-0.31-1.43c-0.18-0.41-0.46-0.73-0.83-0.94c-0.37-0.22-0.89-0.33-1.58-0.33H113.31z"/>
		<path d="M120.98,103.23l5.47-25.78h2.92l5.47,25.78h-3.51l-1.03-5.54h-4.78l-1.03,5.54H120.98z M129.65,94.21l-1.72-9.34h-0.07
			l-1.72,9.34H129.65z"/>
		<path d="M137.42,77.45h9.37c0.93,0,1.83,0.09,2.7,0.28c0.87,0.25,1.75,0.76,2.64,1.52c0.75,0.58,1.36,1.4,1.82,2.48
			c0.49,1.04,0.73,2.26,0.73,3.68c0,1.91-0.62,3.65-1.86,5.21c-1.27,1.65-3.12,2.5-5.57,2.55h-6.25v10.06h-3.59V77.45z
			 M141.01,89.49h6.1c1.34-0.02,2.34-0.47,3.02-1.35c0.64-0.85,0.96-1.8,0.96-2.84c0-0.86-0.13-1.59-0.39-2.19
			c-0.27-0.53-0.65-0.95-1.14-1.26c-0.74-0.51-1.6-0.75-2.57-0.73h-5.98V89.49z"/>
		<path d="M156.96,103.23V77.45h10.46v3.48h-6.95v7.57h6.05v3.48h-6.05v7.57h6.95v3.69H156.96z"/>
		<path d="M171.65,77.45h10.22c1.98,0,3.59,0.57,4.84,1.7c1.5,1.29,2.29,3.12,2.35,5.5c-0.04,3.5-1.57,5.88-4.58,7.14l5.49,11.44
			h-4.27l-4.91-11.02h-5.56v11.02h-3.59V77.45z M175.25,88.75h6.4c1.35-0.02,2.36-0.45,3.03-1.28c0.66-0.77,0.99-1.71,0.99-2.84
			c-0.02-1.35-0.42-2.32-1.19-2.93c-0.61-0.53-1.49-0.8-2.64-0.8h-6.6V88.75z"/>
		<path d="M204.09,84.87h-3.51v-0.83c0-0.85-0.19-1.58-0.57-2.19c-0.38-0.62-1.02-0.93-1.91-0.93c-0.48,0-0.87,0.1-1.17,0.29
			c-0.3,0.2-0.54,0.44-0.72,0.73c-0.18,0.31-0.31,0.67-0.38,1.07c-0.07,0.4-0.1,0.81-0.1,1.25c0,0.5,0.02,0.93,0.05,1.27
			c0.03,0.34,0.12,0.64,0.26,0.91c0.14,0.26,0.34,0.5,0.6,0.69c0.26,0.19,0.62,0.39,1.08,0.58l2.68,1.12
			c0.78,0.32,1.41,0.68,1.89,1.1c0.48,0.42,0.86,0.91,1.14,1.47c0.25,0.58,0.42,1.24,0.51,1.97c0.09,0.74,0.14,1.58,0.14,2.51
			c0,1.09-0.1,2.1-0.31,3.03c-0.21,0.93-0.54,1.72-1,2.37c-0.48,0.68-1.11,1.21-1.89,1.59c-0.78,0.39-1.73,0.58-2.85,0.58
			c-0.85,0-1.64-0.16-2.38-0.47c-0.73-0.31-1.36-0.75-1.89-1.3c-0.53-0.56-0.95-1.2-1.26-1.94s-0.46-1.54-0.46-2.41v-1.38h3.51v1.16
			c0,0.68,0.19,1.29,0.57,1.83c0.38,0.54,1.01,0.82,1.91,0.82c0.59,0,1.06-0.09,1.39-0.27c0.33-0.18,0.59-0.44,0.77-0.78
			c0.18-0.34,0.29-0.74,0.32-1.21c0.04-0.47,0.05-1,0.05-1.58c0-0.68-0.02-1.23-0.07-1.67c-0.04-0.44-0.14-0.78-0.28-1.05
			c-0.16-0.27-0.37-0.48-0.64-0.65c-0.26-0.17-0.61-0.35-1.05-0.54l-2.51-1.09c-1.51-0.65-2.53-1.51-3.04-2.59
			c-0.52-1.07-0.77-2.42-0.77-4.04c0-0.96,0.13-1.88,0.38-2.75c0.25-0.87,0.63-1.62,1.13-2.25c0.48-0.63,1.1-1.13,1.84-1.5
			c0.75-0.37,1.64-0.56,2.67-0.56c0.87,0,1.67,0.17,2.39,0.51c0.72,0.34,1.35,0.78,1.88,1.34c1.05,1.16,1.58,2.48,1.58,3.98V84.87z"
			/>
	</g>
</g>
</svg>
